Coordinates
version=1
nRows=13
nColumns=40
inDegrees=yes

Units are S.I. units (second, meters, Newtons, ...)
Angles are in degrees.

endheader
time	pelvis_tilt	pelvis_list	pelvis_rotation	pelvis_tx	pelvis_ty	pelvis_tz	hip_flexion_r	hip_adduction_r	hip_rotation_r	knee_angle_r	knee_angle_r_beta	ankle_angle_r	subtalar_angle_r	mtp_angle_r	hip_flexion_l	hip_adduction_l	hip_rotation_l	knee_angle_l	knee_angle_l_beta	ankle_angle_l	subtalar_angle_l	mtp_angle_l	lumbar_extension	lumbar_bending	lumbar_rotation	arm_flex_r	arm_add_r	arm_rot_r	elbow_flex_r	pro_sup_r	wrist_flex_r	wrist_dev_r	arm_flex_l	arm_add_l	arm_rot_l	elbow_flex_l	pro_sup_l	wrist_flex_l	wrist_dev_l
     52.20000000	     -2.97226251	     -5.42246779	      0.09950625	      1.05203664	      0.93563982	      0.42435918	     28.82467996	     -3.73224664	     -6.29798352	     58.31078422	     58.31078422	      2.45251767	    -14.52664160	      0.82644113	     13.89272049	     -6.35887469	     -7.51128453	     21.45610029	     21.45610029	     12.63898909	     -9.57682784	     -1.28557949	    -10.74020160	      4.29310139	      1.07120466	      1.48079826	    -13.94770807	     -0.29187202	     28.79934282	     45.65838112	      0.00000000	      0.00000000	     12.65855625	    -14.49364249	     -0.46363386	     45.14022001	     45.72769580	      0.00000000	      0.00000000
     52.21285714	     -2.98959590	     -5.53870797	     -0.33130561	      1.05053654	      0.93592149	      0.42463019	     29.37406270	     -3.51159873	     -6.36995866	     56.17373924	     56.17373924	      2.53991061	    -14.19825658	      0.81720203	     13.42965649	     -6.50934319	     -7.74082889	     21.22235389	     21.22235389	     12.77541398	     -9.76869725	     -1.23836094	    -10.82681767	      4.45514277	      0.91477588	      0.64563855	    -14.13752155	     -0.33539129	     28.33662151	     45.67832162	      0.00000000	      0.00000000	     13.51007529	    -14.75931707	     -0.56221807	     45.87555008	     45.75927208	      0.00000000	      0.00000000
     52.22571429	     -2.95754605	     -5.58770132	     -0.80124611	      1.04907878	      0.93618798	      0.42493458	     29.68334437	     -3.30457638	     -6.40254181	     53.67873221	     53.67873221	      1.95165169	    -14.15845657	     -0.91075065	     12.89877250	     -6.58756146	     -8.01765782	     20.98480623	     20.98480623	     12.87006695	     -9.98332601	     -1.33827561	    -11.04260823	      4.50876837	      0.84689587	     -0.09944823	    -14.23159938	     -1.11772977	     27.76470484	     45.78606924	      0.00000000	      0.00000000	     13.62942673	    -15.33555010	     -0.41091297	     48.89482919	     45.82780453	      0.00000000	      0.00000000
     52.23857143	     -3.01275789	     -5.68846544	     -1.22680572	      1.04757989	      0.93629799	      0.42526822	     30.02269878	     -3.04791806	     -6.53044716	     51.12312275	     51.12312275	      1.94678392	    -13.70862160	     -0.73765840	     12.50617288	     -6.72710541	     -8.29243392	     20.79542680	     20.79542680	     12.99690746	    -10.13814816	     -1.31830290	    -11.09037917	      4.67879700	      0.61575299	     -0.83338759	    -14.40214568	     -1.19608328	     27.39257314	     45.80469924	      0.00000000	      0.00000000	     14.47209438	    -15.68354505	     -0.54980633	     49.57206188	     45.86178729	      0.00000000	      0.00000000
     52.25142857	     -2.97800659	     -5.76802254	     -1.65215694	      1.04616089	      0.93649815	      0.42565681	     30.11968216	     -2.80107806	     -6.70677198	     48.32704092	     48.32704092	      1.87091601	    -13.16352795	     -0.65862365	     12.00669067	     -6.84552771	     -8.59585835	     20.60367094	     20.60367094	     13.14922825	    -10.25487567	     -1.33433069	    -11.27600344	      4.80954220	      0.68566096	     -1.62116608	    -14.62817115	     -1.37278089	     26.97318407	     45.83446363	      0.00000000	      0.00000000	     15.26165280	    -15.86720421	     -0.67425541	     50.84350035	     45.90331425	      0.00000000	      0.00000000
     52.26428571	     -2.95043517	     -5.90603230	     -2.06715556	      1.04480641	      0.93664406	      0.42615172	     30.08122524	     -2.49784931	     -7.00501947	     45.30369261	     45.30369261	      1.71910965	    -12.40596591	     -0.68150144	     11.50215621	     -7.02989455	     -8.87893675	     20.39634188	     20.39634188	     13.35578398	    -10.31431513	     -1.40966656	    -11.45222013	      4.97007137	      0.74183235	     -2.40264806	    -14.83436498	     -1.68486233	     26.62915744	     45.87305582	      0.00000000	      0.00000000	     15.88010009	    -16.03180657	     -0.77123542	     52.56242384	     45.94874042	      0.00000000	      0.00000000
     52.27714286	     -3.15787767	     -5.85463611	     -2.48510084	      1.04327900	      0.93627145	      0.42674403	     30.28958497	     -2.33846205	     -7.21088971	     42.25775595	     42.25775595	      1.70758093	    -11.60594376	     -0.55495818	     11.33543132	     -7.03417929	     -9.22104700	     20.28782873	     20.28782873	     13.46377934	    -10.39271326	     -1.47278880	    -11.37958217	      4.98218028	      0.59290961	     -2.95252277	    -14.85997488	     -1.89366308	     26.46445432	     45.89490295	      0.00000000	      0.00000000	     16.52389025	    -16.47784277	     -0.91418189	     53.67552161	     45.98689118	      0.00000000	      0.00000000
     52.29000000	     -3.19563803	     -5.85957999	     -2.88339559	      1.04196159	      0.93613504	      0.42738814	     30.13860039	     -2.15419304	     -7.60680566	     38.96727921	     38.96727921	      1.58806208	    -10.42713894	     -0.52962621	     10.96203896	     -7.09734189	     -9.57620480	     20.18019457	     20.18019457	     13.65376003	    -10.42189075	     -1.59305279	    -11.48481386	      5.02998684	      0.58722599	     -3.53428101	    -14.99196646	     -2.24151302	     26.32942387	     45.92764548	      0.00000000	      0.00000000	     17.05656192	    -16.72645483	     -1.03179304	     55.32582568	     46.03141508	      0.00000000	      0.00000000
     52.30285714	     -3.29175356	     -5.82759475	     -3.27192992	      1.04070404	      0.93584747	      0.42819469	     29.93948940	     -1.97100133	     -8.00913921	     35.57189235	     35.57189235	      1.54495989	     -8.94710043	     -0.69263640	     10.63625794	     -7.13442688	     -9.94780453	     20.04340023	     20.04340023	     13.83983229	    -10.36072544	     -1.75053111	    -11.56380017	      5.03491527	      0.57581844	     -4.04595643	    -15.00254998	     -2.75810691	     26.35225101	     45.96868494	      0.00000000	      0.00000000	     17.44875099	    -17.04569438	     -1.17908128	     57.33322750	     46.08656576	      0.00000000	      0.00000000
     52.31571429	     -3.59356177	     -5.68152459	     -3.67479872	      1.03935792	      0.93518712	      0.42916579	     29.98074841	     -1.80727592	     -8.22684393	     32.25550327	     32.25550327	      1.38755122	     -7.63865029	     -0.36022110	     10.57018956	     -7.06306539	    -10.30175329	     19.94120391	     19.94120391	     13.97898813	    -10.43025447	     -1.84098892	    -11.33558595	      4.91916725	      0.45897892	     -4.40632394	    -14.88172836	     -2.94779666	     26.34175055	     45.98248940	      0.00000000	      0.00000000	     18.04078544	    -17.35612223	     -1.31805902	     58.28429368	     46.12072922	      0.00000000	      0.00000000
     52.32857143	     -3.57771180	     -5.59969916	     -3.98834212	      1.03848158	      0.93492624	      0.43001625	     29.42680087	     -1.76407634	     -9.06656869	     28.80251896	     28.80251896	      1.27983944	     -5.18234969	     -0.78196324	     10.07155315	     -7.04261636	    -10.73664156	     19.73563185	     19.73563185	     14.17392861	    -10.16020565	     -2.13530236	    -11.55135789	      4.90444792	      0.35146653	     -4.89539117	    -14.84895217	     -4.30820533	     26.88086092	     46.07202387	      0.00000000	      0.00000000	     17.80508574	    -17.71273843	     -1.63677694	     61.62038717	     46.22639786	      0.00000000	      0.00000000
     52.34142857	     -3.75470743	     -5.54422495	     -4.30087471	      1.03755160	      0.93439887	      0.43122398	     29.06033347	     -1.45885604	     -9.35295437	     25.49109862	     25.49109862	      1.16343876	     -3.60012236	     -0.21906454	      9.83638105	     -7.05579907	    -10.96334242	     19.61467314	     19.61467314	     14.35575974	    -10.25089673	     -2.23429006	    -11.40794049	      4.91758176	      0.29798110	     -5.13265568	    -14.71406411	     -4.54766717	     26.89178807	     46.08978883	      0.00000000	      0.00000000	     18.39580274	    -17.83483866	     -1.78820157	     62.40506185	     46.26291970	      0.00000000	      0.00000000
     52.35428571	     -3.78009183	     -5.42170270	     -4.56299881	      1.03691045	      0.93401450	      0.43239569	     28.49984102	     -1.32181874	     -9.90755928	     22.49491027	     22.49491027	      1.18358637	     -1.48279399	      0.43807967	      9.38740551	     -6.98309875	    -11.25513030	     19.42654528	     19.42654528	     14.55262471	    -10.18516756	     -2.39720615	    -11.44408236	      4.85824301	      0.35493104	     -5.42955014	    -14.65140479	     -4.93326705	     27.00508343	     46.11429318	      0.00000000	      0.00000000	     18.94237153	    -17.86732475	     -1.98085842	     63.56684886	     46.31125959	      0.00000000	      0.00000000
